<svg viewBox="0 0 352 308"><path fill="#ff0" d="M340.4 188.6L235 218.8v-11.6l-12 3.5v-12.2l-11.6 3.3-.2 36.2-58.2 16.7v-12.2L81.5 263v-12.2l-10.1 2.9v12.2l-59.3 17v-12.2l-12 3.5v25.1l12-3.4V308l59.3-17v-12.2l10.1-2.9v12.2l71.5-20.5v12.2l58.2-16.7.2-36.2 11.6-3.3v12.2l12-3.5V244l105.4-30.3v-11.5l11.6-3.4v-25.1l-11.6 3.3v11.6z"/><path fill="#f0f" d="M340.4 163.4L235 193.7v-11.6l-12 3.5v-12.3l-11.6 3.4-.2 36.2-58.2 16.7v-12.2l-71.5 20.5v-12.2l-10.1 2.9v12.2l-59.3 17v-12.2L.1 249v25.2l12-3.5v12.2l59.3-17v-12.2l10.1-2.9V263l71.5-20.5v12.2l58.2-16.7.2-36.2 11.6-3.3v12.2l12-3.5v11.6l105.4-30.2V177l11.6-3.3v-25.2l-11.6 3.3v11.6z"/><path fill="#0ff" d="M340.4 138.4L235 168.5v-11.6l-12 3.5v-12.2l-11.6 3.3-.2 36.2-58.2 16.7v-12.2l-71.5 20.5v-12.2l-10.1 2.9v12.2l-59.3 17v-12.2l-12 3.5V249l12-3.4v12.2l59.3-17v-12.2l10.1-2.9v12.2l71.5-20.5v12.2l58.2-16.7.2-36.2 11.6-3.4v12.3l12-3.5v11.6l105.4-30.3v-11.6l11.6-3.3v-25.1l-11.6 3.3v11.7z"/><path d="M340.4 20.4V8.8l-.5.1v-.6l-11.6 3.3V0L222.9 30.2v6.6l-.2.1v-.6l-11.1 3.2v-11l-.5.1v-.4l-11.6 3.3V19.9l-59.2 17v11.6l-11.6 3.3-.2 5.8-59.2 17v12.2l-10.2 2.9V77.4L0 94.4V224l12-3.4v12.2l59.2-17v-12.2l10.2-2.9v12.2l71.5-20.5.1 12.2 58.2-16.7.2-36.2 11.6-3.3v12.2l12-3.5v11.6l105.4-30.2V127l11.6-3.3V17.2l-11.6 3.2zM116.7 78.3l-10.9 3.1v49.1l10.9-3.1V178l-35.1 10v-34.7L70 156.6V145l-11.5 3.3v-11.5L47.4 140v57.7l-35.2 10.1V103.4l35.2-10.1v23.1l11.6-3.3v11.6l11.5-3.3V133l11.1-3.2V83.5l35.2-10.1-.1 4.9zm105.7 6.3l-11.6 3.3V76.3l-11.6 3.3V68.1l-11.6 3.3-.5 98.5-34.2 9.8-.5-98.2-11.6 3.3v11.6l-11.6 3.3v11.6l-11.6 3.3V90.5l11.6-3.3V75.6l11.6-3.3V60.7l11.6-3.3V45.9l35.1-10.1v11.6l11.6-3.3v11.6l11.6-3.3V64l11.6-3.3.1 23.9zm105.5-36.7L292.7 58V46.4l-11.6 3.3V38.2l-22.6 6.5v22.7l23.1-6.6v11.6l34.7-10v11.5l11.6-3.3v35.2l-11.6 3.3v11.6L235 143.9v-11.6l-11.6 3.3V112l35.2-10.1v11.6l11.6-3.3v11.6l22.6-6.5V92.6l-23.1 6.6V87.6l-23.3 6.7v-41l-11.6 3.3.2-17.3L316.4 16v11.6l11.6-3.3-.1 23.6z"/></svg>
